<svg width="154" height="97" viewBox="0 0 154 97" fill="none" xmlns="http://www.w3.org/2000/svg">
<path d="M23.112 89H17.658L13.428 78.974H8.154V89H2.916V62.972H13.896C15.972 62.972 17.67 63.302 18.99 63.962C20.31 64.622 21.282 65.54 21.906 66.716C22.53 67.88 22.842 69.224 22.842 70.748C22.842 72.116 22.626 73.274 22.194 74.222C21.774 75.158 21.216 75.938 20.52 76.562C19.836 77.186 19.086 77.696 18.27 78.092L23.112 89ZM12.96 74.924C14.364 74.924 15.474 74.546 16.29 73.79C17.118 73.034 17.532 72.062 17.532 70.874C17.532 69.674 17.136 68.726 16.344 68.03C15.552 67.334 14.55 66.986 13.338 66.986H8.154V74.924H12.96ZM27.9824 89V62.972H45.8564L45.8384 67.4H33.2564V73.718H44.1824V78.056H33.2204V84.518L46.0364 84.536V89H27.9824ZM68.1269 62.972H73.3829V89H68.6489L56.2829 71.09V89H51.0449V62.972H56.2469L68.1269 80.198V62.972ZM76.9731 67.652V62.972H97.7991V67.652H90.1131V89H84.8391V67.652H76.9731ZM101.911 89V62.972H110.281C113.449 62.972 115.843 63.554 117.463 64.718C119.095 65.882 119.911 67.562 119.911 69.758C119.911 71.138 119.551 72.32 118.831 73.304C118.123 74.288 116.875 75.098 115.087 75.734C116.107 75.95 116.965 76.262 117.661 76.67C118.369 77.078 118.933 77.558 119.353 78.11C119.785 78.65 120.091 79.25 120.271 79.91C120.463 80.57 120.559 81.266 120.559 81.998C120.559 84.35 119.719 86.108 118.039 87.272C116.371 88.424 113.875 89 110.551 89H101.911ZM105.241 86.228H110.515C112.687 86.228 114.337 85.874 115.465 85.166C116.605 84.446 117.175 83.342 117.175 81.854C117.175 80.762 116.893 79.88 116.329 79.208C115.777 78.524 115.027 78.026 114.079 77.714C113.131 77.402 112.075 77.246 110.911 77.246H105.241V86.228ZM105.241 74.42H110.911C111.595 74.42 112.273 74.354 112.945 74.222C113.617 74.09 114.235 73.862 114.799 73.538C115.363 73.214 115.819 72.782 116.167 72.242C116.515 71.69 116.689 71 116.689 70.172C116.689 68.66 116.107 67.544 114.943 66.824C113.791 66.092 112.291 65.726 110.443 65.726H105.241V74.42ZM128.979 70.388V89H125.757V70.388H128.979ZM129.051 62.99V66.446H125.649V62.99H129.051ZM139.745 89.234C138.737 89.234 137.921 89.096 137.297 88.82C136.685 88.544 136.211 88.172 135.875 87.704C135.551 87.236 135.329 86.702 135.209 86.102C135.101 85.49 135.047 84.86 135.047 84.212V62.252H138.323V83.888C138.323 84.824 138.503 85.526 138.863 85.994C139.235 86.462 139.751 86.72 140.411 86.768L141.419 86.786V88.946C141.143 89.03 140.855 89.096 140.555 89.144C140.255 89.204 139.985 89.234 139.745 89.234ZM149.94 89.234C148.932 89.234 148.116 89.096 147.492 88.82C146.88 88.544 146.406 88.172 146.07 87.704C145.746 87.236 145.524 86.702 145.404 86.102C145.296 85.49 145.242 84.86 145.242 84.212V62.252H148.518V83.888C148.518 84.824 148.698 85.526 149.058 85.994C149.43 86.462 149.946 86.72 150.606 86.768L151.614 86.786V88.946C151.338 89.03 151.05 89.096 150.75 89.144C150.45 89.204 150.18 89.234 149.94 89.234Z" fill="#22668A"/>
<path fill-rule="evenodd" clip-rule="evenodd" d="M74.0555 0L74.0937 0.399679C74.1708 1.20664 74.8245 1.87614 75.7137 2.06197C80.0634 2.9733 84.3589 4.05267 88.3508 5.64877C93.0058 7.5147 97.2415 9.85157 101.651 12.4532C102.27 12.8198 103.046 12.863 103.699 12.6008C105.152 17.1345 106 22.5898 106 28.4574C106 44.1639 99.9265 56.9149 92.4461 56.9149H62.5539C55.0735 56.9149 49 44.1639 49 28.4574C49 12.751 55.0735 0 62.5539 0H74.0555ZM56.3498 39.7192C56.3498 40.0578 56.5011 40.3811 56.7709 40.6204C57.0406 40.8571 57.4065 40.992 57.7878 40.992C59.2154 40.992 61.3917 40.992 62.8193 40.992C63.2007 40.992 63.5665 41.1269 63.836 41.3637C64.1057 41.603 64.2573 41.9263 64.2573 42.2648C64.2573 42.6467 64.2573 43.0668 64.2573 43.4486C64.2573 43.7846 64.1057 44.1104 63.836 44.3471C63.5665 44.5864 63.2007 44.7214 62.8193 44.7214C62.6925 44.7214 62.5642 44.7214 62.4377 44.7214C62.0563 44.7214 61.6905 44.8538 61.4207 45.0931C61.151 45.3323 60.9997 45.6556 60.9997 45.9942C60.9997 46.3761 60.9997 46.7935 60.9997 47.1753C60.9997 47.5139 61.151 47.8372 61.4207 48.0765C61.6905 48.3158 62.0563 48.4482 62.4377 48.4482C63.4975 48.4482 64.9329 48.4482 65.9927 48.4482C66.374 48.4482 66.7398 48.5831 67.0093 48.8224C67.2791 49.0616 67.4306 49.3849 67.4306 49.721C67.4306 50.1028 67.4306 50.5228 67.4306 50.9046C67.4306 51.2432 67.5822 51.5665 67.8517 51.8058C68.1215 52.0425 68.4873 52.1775 68.8686 52.1775C71.2074 52.1775 75.8084 52.1775 78.1471 52.1775C78.5284 52.1775 78.8943 52.0425 79.164 51.8058C79.4338 51.5665 79.5851 51.2432 79.5851 50.9046C79.5851 50.5228 79.5851 50.1028 79.5851 49.721C79.5851 49.3849 79.4338 49.0616 79.164 48.8224C78.8943 48.5831 78.5284 48.4482 78.1471 48.4482C76.7195 48.4482 74.5432 48.4482 73.1156 48.4482C72.7342 48.4482 72.3684 48.3158 72.0989 48.0765C71.8292 47.8372 71.6776 47.5139 71.6776 47.1753C71.6776 46.7935 71.6776 46.3761 71.6776 45.9942C71.6776 45.6556 71.8292 45.3323 72.0989 45.0931C72.3684 44.8538 72.7342 44.7214 73.1156 44.7214H74.8895C75.2708 44.7214 75.6367 44.5864 75.9064 44.3471C76.1762 44.1104 76.3275 43.7846 76.3275 43.4486V42.2648C76.3275 41.5623 75.6838 40.992 74.8895 40.992H69.9422C69.1482 40.992 68.5043 40.4218 68.5043 39.7192C68.5043 39.3374 68.5043 38.9174 68.5043 38.5355C68.5043 37.833 69.1482 37.2627 69.9422 37.2627C70.9181 37.2627 72.2028 37.2627 73.1783 37.2627C73.9726 37.2627 74.6163 36.6925 74.6163 35.9899C74.6163 35.6081 74.6163 35.1906 74.6163 34.8087C74.6163 34.4702 74.465 34.1469 74.1952 33.9076C73.9254 33.6683 73.5596 33.5359 73.1783 33.5359C72.1185 33.5359 70.6831 33.5359 69.6233 33.5359C69.2419 33.5359 68.8761 33.401 68.6066 33.1617C68.3369 32.9224 68.1853 32.5991 68.1853 32.2631C68.1853 31.8813 68.1853 31.4613 68.1853 31.0794C68.1853 30.7409 68.3369 30.4176 68.6066 30.1783C68.8761 29.939 69.2419 29.8066 69.6233 29.8066C70.8539 29.8066 72.6169 29.8066 73.8475 29.8066C74.2289 29.8066 74.5947 29.6717 74.8642 29.4324C75.1339 29.1957 75.2855 28.8698 75.2855 28.5338C75.2855 28.152 75.2855 27.732 75.2855 27.3501C75.2855 27.0116 75.1339 26.6883 74.8642 26.4515C74.5947 26.2122 74.2289 26.0773 73.8475 26.0773C72.7877 26.0773 71.3523 26.0773 70.2925 26.0773C69.9109 26.0773 69.5454 25.9424 69.2756 25.7056C69.0058 25.4663 68.8545 25.1431 68.8545 24.8045C68.8545 24.4227 68.8545 24.0026 68.8545 23.6208C68.8545 23.2847 69.0058 22.9614 69.2756 22.7222C69.5454 22.4829 69.9109 22.348 70.2925 22.348C71.711 22.348 73.8671 22.348 75.2855 22.348C75.6669 22.348 76.0327 22.2156 76.3022 21.9763C76.5719 21.737 76.7235 21.4137 76.7235 21.0752C76.7235 20.6933 76.7235 20.2759 76.7235 19.894C76.7235 19.5554 76.5719 19.2321 76.3022 18.9929C76.0327 18.7536 75.6669 18.6212 75.2855 18.6212C74.2257 18.6212 72.7903 18.6212 71.7305 18.6212C71.3489 18.6212 70.9833 18.4863 70.7136 18.247C70.4438 18.0077 70.2925 17.6844 70.2925 17.3484C70.2925 16.9666 70.2925 16.5465 70.2925 16.1647C70.2925 15.8261 70.4438 15.5028 70.7136 15.2635C70.9833 15.0268 71.3489 14.8918 71.7305 14.8918C73.2841 14.8918 75.7451 14.8918 77.2987 14.8918C77.68 14.8918 78.0459 14.7569 78.3153 14.5176C78.5851 14.2809 78.7367 13.9551 78.7367 13.619C78.7367 13.2372 78.7367 12.8172 78.7367 12.4354C78.7367 12.0993 78.5851 11.7735 78.3153 11.5367C78.0459 11.2975 77.68 11.1625 77.2987 11.1625C76.2389 11.1625 74.8035 11.1625 73.7437 11.1625C73.362 11.1625 72.9965 11.0276 72.7268 10.7909C72.457 10.5516 72.3057 10.2283 72.3057 9.88974C72.3057 9.5079 72.3057 9.09044 72.3057 8.70605C72.3057 8.00346 71.6618 7.43324 70.8677 7.43324C68.8255 7.43324 65.1074 7.43324 63.0655 7.43324C62.2712 7.43324 61.6275 8.00346 61.6275 8.70605C61.6275 9.09044 61.6275 9.5079 61.6275 9.88974C61.6275 10.2283 61.7791 10.5516 62.0486 10.7909C62.3183 11.0276 62.6842 11.1625 63.0655 11.1625C64.1253 11.1625 65.5607 11.1625 66.6205 11.1625C67.0019 11.1625 67.3677 11.2975 67.6374 11.5367C67.9069 11.7735 68.0585 12.0993 68.0585 12.4354C68.0585 12.8172 68.0585 13.2372 68.0585 13.619C68.0585 13.9551 67.9069 14.2809 67.6374 14.5176C67.3677 14.7569 67.0019 14.8918 66.6205 14.8918C64.3016 14.8918 59.7622 14.8918 57.443 14.8918C57.0616 14.8918 56.6961 15.0268 56.4263 15.2635C56.1566 15.5028 56.005 15.8261 56.005 16.1647C56.005 16.5465 56.005 16.9666 56.005 17.3484C56.005 17.6844 56.1566 18.0077 56.4263 18.247C56.6961 18.4863 57.0616 18.6212 57.443 18.6212C59.3509 18.6212 62.6994 18.6212 64.6073 18.6212C64.9887 18.6212 65.3545 18.7536 65.6242 18.9929C65.8937 19.2321 66.0453 19.5554 66.0453 19.894C66.0453 20.2759 66.0453 20.6933 66.0453 21.0752C66.0453 21.4137 65.8937 21.737 65.6242 21.9763C65.3545 22.2156 64.9887 22.348 64.6073 22.348C62.4354 22.348 58.3411 22.348 56.1692 22.348C55.7879 22.348 55.422 22.4829 55.1523 22.7222C54.8828 22.9614 54.7312 23.2847 54.7312 23.6208C54.7312 24.0026 54.7312 24.4227 54.7312 24.8045C54.7312 25.5071 55.3749 26.0773 56.1692 26.0773C58.0418 26.0773 61.2968 26.0773 63.1693 26.0773C63.9637 26.0773 64.6073 26.6475 64.6073 27.3501C64.6073 27.732 64.6073 28.152 64.6073 28.5338C64.6073 28.8698 64.4557 29.1957 64.1863 29.4324C63.9165 29.6717 63.5507 29.8066 63.1693 29.8066C61.1208 29.8066 57.3846 29.8066 55.3361 29.8066C54.9547 29.8066 54.5889 29.939 54.3191 30.1783C54.0496 30.4176 53.8981 30.7409 53.8981 31.0794C53.8981 31.4613 53.8981 31.8813 53.8981 32.2631C53.8981 32.5991 54.0496 32.9224 54.3191 33.1617C54.5889 33.401 54.9547 33.5359 55.3361 33.5359C57.244 33.5359 60.5924 33.5359 62.5004 33.5359C62.8817 33.5359 63.2476 33.6683 63.517 33.9076C63.7868 34.1469 63.9384 34.4702 63.9384 34.8087C63.9384 35.1906 63.9384 35.6081 63.9384 35.9899C63.9384 36.3285 63.7868 36.6518 63.517 36.8911C63.2476 37.1304 62.8817 37.2627 62.5004 37.2627C61.1492 37.2627 59.1387 37.2627 57.7878 37.2627C57.4065 37.2627 57.0406 37.3976 56.7709 37.6369C56.5011 37.8737 56.3498 38.1995 56.3498 38.5355C56.3498 38.9174 56.3498 39.3374 56.3498 39.7192ZM92.4461 9.36023C97.4664 9.36023 101.542 17.9186 101.542 28.4574C101.542 38.9988 97.4664 47.5572 92.4461 47.5572C87.4258 47.5572 83.35 38.9988 83.35 28.4574C83.35 17.9186 87.4258 9.36023 92.4461 9.36023ZM92.4461 13.0896C96.4863 13.0896 99.7663 19.9754 99.7663 28.4574C99.7663 36.9394 96.4863 43.8279 92.4461 43.8279C88.406 43.8279 85.1259 36.9394 85.1259 28.4574C85.1259 19.9754 88.406 13.0896 92.4461 13.0896Z" fill="#22668A"/>
</svg>
