<svg width="57" height="23" viewBox="0 0 57 23" fill="none" xmlns="http://www.w3.org/2000/svg">
<path fill-rule="evenodd" clip-rule="evenodd" d="M23.4473 10.3564L20.179 10.4093C20.0512 10.4114 19.9276 10.3308 19.8321 10.1832L19.6251 9.86315C19.9709 9.50242 20.3929 9.06109 20.8549 8.57792L20.8558 8.57698L20.8561 8.57673L20.8566 8.57621C22.4525 6.90726 24.5249 4.73992 25.5833 3.67112C26.1807 3.09245 26.6176 2.69098 26.8013 2.56321L26.8075 2.5589C26.8901 2.50141 27.0281 2.40527 27.2289 2.35178C27.4318 2.29773 27.6963 2.23468 27.987 2.19083C28.5681 2.10316 29.2795 1.99996 30.0549 1.94966C31.5624 1.85186 33.2543 1.80771 34.3811 1.80534L33.6394 10.1894H33.8968L34.6047 1.46008H34.476C33.3488 1.46008 31.6095 1.49368 30.0549 1.59453C29.2777 1.64495 28.5453 1.71227 27.9581 1.80086C27.6645 1.84514 27.4058 1.89495 27.1952 1.95106C26.9875 2.00638 26.817 2.07016 26.7057 2.14758C26.5032 2.2884 26.0499 2.70671 25.4581 3.28005C24.8625 3.85701 24.1176 4.59991 23.3264 5.39895C22.7597 5.97116 22.198 6.53457 21.6581 7.07606C20.6901 8.04695 19.7923 8.94738 19.0624 9.70178L19.0441 10.0416C18.5743 10.6087 18.3281 10.9713 18.1924 11.2395C18.047 11.5269 18.0266 11.7064 17.9981 11.9581L17.9924 12.0085C17.958 12.3082 17.892 13.0698 17.8464 13.7707L23.4807 13.7707C23.5184 13.3043 23.5057 12.6938 23.4908 11.9699V11.9699V11.9698L23.4907 11.9693L23.4907 11.9692C23.4843 11.6599 23.4775 11.33 23.474 10.9818C23.4737 10.9481 23.6168 10.859 23.6843 10.8169L23.6843 10.8169L23.6843 10.8169L23.7034 10.805L23.7141 10.7981C23.7465 10.7763 23.8695 10.7858 23.8722 10.8248C23.9513 11.9691 24.2898 13.026 24.5782 13.7707H34.0673C34.0841 12.8025 34.0267 11.3775 33.7319 10.1901L23.8747 10.3495C23.9029 10.1824 23.9714 9.9426 24.1152 9.62998L23.9829 9.76806C23.8619 9.89433 23.6945 9.96573 23.5197 9.96573C23.4887 9.96573 23.4588 9.95454 23.4355 9.93424L23.343 9.85381L23.343 9.85394L23.3431 9.85437L23.3432 9.85467C23.365 9.93043 23.3794 9.98051 23.3914 10.0311C23.4096 10.1079 23.4224 10.1859 23.4473 10.3564ZM34.5673 13.7707L42.4504 13.7707C42.4723 13.7707 42.4937 13.7702 42.5141 13.7698C42.7333 13.7648 42.8408 13.7623 42.3217 14.394C40.5464 16.5545 40.2425 18.3315 39.7532 21.1929C39.7119 21.4341 39.6693 21.683 39.6245 21.9405C40.1393 19.5157 41.1304 16.5462 44.3223 16.4567C47.5143 16.3671 48.5697 19.6649 49.0845 21.9405L49.0655 21.8227C48.6469 19.2319 48.2827 16.9783 46.3251 14.4663C45.7373 13.7121 45.9616 13.7361 46.1988 13.7614C46.2421 13.7661 46.2858 13.7707 46.3251 13.7707L56.2913 13.7707C56.3527 13.9577 56.3332 14.2213 56.1471 15.5066L56.1452 15.5139L56.1458 15.5152C56.0937 15.8748 56.0286 16.3141 55.9487 16.8534L55.8417 17.5758L56.268 15.6369C56.2921 15.6112 56.3229 15.5815 56.3563 15.5519C56.4122 15.5024 56.4658 15.4612 56.4904 15.447C56.5064 15.4377 56.5183 15.4212 56.5259 15.4086C56.534 15.3953 56.541 15.3802 56.547 15.3657C56.5588 15.3368 56.5703 15.301 56.5812 15.2628C56.603 15.1858 56.6261 15.0857 56.6484 14.9796C56.6929 14.7678 56.7364 14.5207 56.7631 14.3565C56.7752 14.2938 56.7826 14.196 56.762 14.1009C56.7438 14.0169 56.7063 13.9476 56.648 13.9087L56.6783 13.7707C56.6955 13.6485 56.7122 13.4854 56.728 13.2936C56.7883 13.2831 56.8553 13.2522 56.9109 13.1671C56.9233 13.1481 56.9307 13.1252 56.935 13.1095C56.9397 13.0923 56.9434 13.0738 56.9464 13.0558C56.9524 13.0198 56.9573 12.9762 56.9614 12.9292C56.9697 12.8348 56.976 12.7144 56.9809 12.5876C56.9889 12.3822 56.9936 12.1521 56.9973 11.9743L56.9973 11.9739L56.9997 11.8607C57.0058 11.7332 56.9539 11.6114 56.8267 11.5526C56.8681 10.5485 56.8894 9.56267 56.8779 9.3088C56.8744 9.22967 56.8461 9.1626 56.8044 9.13029C50.5292 4.26695 43.1623 0.343774 37.9512 0.117221C30.3124 -0.214878 27.7739 0.21952 26.5987 0.662234C26.5804 0.669126 26.5728 0.706865 26.5823 0.734953C26.6202 0.847595 26.6835 1.09668 26.5606 1.23636C24.9148 3.10629 21.2773 6.90519 19.4816 8.62269C18.8546 9.13082 18.2039 9.07806 17.9792 9.03465C18.085 9.12666 18.5385 9.36396 18.8395 9.50765C18.8818 9.45788 18.9254 9.40687 18.9705 9.35458L19.1149 9.47908C19.7151 8.87905 20.6009 7.96687 21.5606 6.9786L21.5607 6.97856C23.6052 4.8731 25.9851 2.42236 26.6532 1.90919C27.4254 1.31598 31.8168 1.18697 33.1682 1.18697L33.382 1.18695C39.3983 1.18623 43.3093 1.18577 50.1786 6.3844L50.0333 6.59403C48.8577 5.79395 46.071 3.93624 44.6335 3.26459C42.4399 2.23968 39.4784 1.46008 35.184 1.46008L34.6048 10.1894H34.8622L35.377 1.79581C39.6587 1.79581 42.411 2.55065 44.5867 3.56722C45.9702 4.21363 48.6407 5.98715 49.8714 6.8225C48.942 8.03809 48.1071 8.8771 47.4392 9.41565C46.7564 9.9663 46.2561 10.1895 45.9955 10.1895L34.246 10.1895C34.5283 11.4011 34.5837 12.8044 34.5673 13.7707ZM56.8219 11.669C56.8069 12.0198 56.7896 12.3694 56.7704 12.6876C56.8044 12.6522 56.8355 12.6141 56.8525 12.5725C56.9015 12.2594 56.9042 12.0777 56.9064 11.9243L56.9071 11.8806C56.9074 11.8625 56.9078 11.8446 56.9083 11.8269C56.9102 11.7633 56.8867 11.7059 56.8219 11.669ZM56.614 14.063L56.4753 14.6939C56.5081 14.647 56.5385 14.6101 56.5657 14.5771C56.627 14.5026 56.6719 14.448 56.6914 14.343C56.7136 14.2234 56.6763 14.0939 56.614 14.063ZM18.7787 9.57945C18.4581 9.4304 18.1841 9.27241 17.9511 9.13806C17.5144 8.88618 17.2217 8.71741 17.0361 8.84651C16.7001 9.08028 16.6511 9.09171 16.3443 9.16338L16.2639 9.18225C8.42966 10.5223 1.68473 13.1995 0.591236 15.0042C0.587505 15.0104 0.583862 15.0156 0.580063 15.021L0.575749 15.0271C0.509639 15.123 0.528053 15.3141 0.584135 15.4339C0.623984 15.519 0.663049 15.6299 0.69954 15.7712C0.476733 17.2035 0.742584 18.5314 0.902792 19.0538L0.904282 19.0315C0.899491 19.2439 0.892536 19.4673 0.883222 19.7022C1.03382 18.1963 1.10874 17.1778 1.10089 16.5359C1.31077 16.479 1.60973 16.3819 1.99334 16.2574L1.99361 16.2573L1.99388 16.2572L1.994 16.2572L1.99407 16.2572L1.99411 16.2571L1.99413 16.2571C3.11019 15.8948 4.94228 15.3001 7.38123 14.7832C7.51172 14.7555 7.58602 15.0607 7.48933 15.2156C6.4265 16.9176 5.69676 19.5917 5.38801 22.5C5.64543 20.0752 6.95826 15.3151 10.1502 15.2256C13.3422 15.1361 14.655 19.6649 14.9124 21.9405C14.6895 19.1488 13.6327 16.0886 12.2123 14.4722C12.1032 14.3481 12.1449 14.0299 12.275 14.0166C13.7634 13.864 15.3759 13.7707 17.1005 13.7707H17.3454C17.3916 13.0511 17.4599 12.263 17.4957 11.9514L17.5017 11.8984C17.5311 11.6371 17.5598 11.3822 17.7462 11.0138C17.9188 10.6728 18.2239 10.2374 18.7787 9.57945ZM0.895008 17.895C0.751688 17.4783 0.589796 17.0076 0.739735 15.9447C0.828061 16.3696 0.894833 17.0076 0.909505 17.9372L0.895008 17.895ZM54.101 9.13319C54.2515 9.20243 54.3174 9.38059 54.2481 9.53111L54.0473 9.96778C53.9638 10.1491 53.7825 10.2653 53.5829 10.2653C53.4 10.2653 53.231 10.1675 53.1398 10.009L52.9651 9.70512C52.9587 9.70553 52.9523 9.70573 52.9459 9.70573H52.8963L52.9222 9.93102C52.9411 10.0956 52.823 10.2444 52.6584 10.2633C52.4938 10.2823 52.345 10.1642 52.3261 9.99958L52.3079 9.84085C52.2864 10.0742 52.0901 10.2653 51.8418 10.2653H51.6651C51.4178 10.2653 51.1977 10.1084 51.1171 9.87463C50.9872 9.49812 51.2668 9.10575 51.6651 9.10575H51.9805C52.0143 9.10575 52.0468 9.11133 52.0771 9.12161C52.1074 9.11132 52.1398 9.10573 52.1736 9.10573H52.5561H52.5643H52.9459C52.9797 9.10573 53.0122 9.11132 53.0425 9.12162C53.1755 9.07626 53.3263 9.12974 53.3991 9.25618L53.5741 9.56062L53.703 9.28035C53.7723 9.12983 53.9504 9.06394 54.101 9.13319ZM48.441 10.5251C48.441 11.1432 48.7579 11.6442 49.1489 11.6442C49.5398 11.6442 49.8568 11.1432 49.8568 10.5251C49.8568 9.90702 49.5398 9.40596 49.1489 9.40596C48.7579 9.40596 48.441 9.90702 48.441 10.5251ZM32.9464 12.092H31.8342C31.4508 12.092 31.1452 12.4126 31.1635 12.7956C31.1807 13.1535 31.4759 13.4349 31.8342 13.4349H32.9464C33.2947 13.4349 33.5851 13.1686 33.6154 12.8217C33.6495 12.4293 33.3402 12.092 32.9464 12.092ZM20.1896 6.94398L17.6797 8.62269C18.038 8.84488 18.6451 8.84652 18.6451 8.84652C18.6451 8.84652 18.4528 8.62 18.5163 8.39887C18.5807 8.17504 20.1896 6.94398 20.1896 6.94398ZM48.8364 11.171L48.8366 11.1705C48.9239 11.0011 48.9961 10.861 49.1488 10.861C49.3016 10.861 49.3738 11.0011 49.461 11.1705C49.4774 11.2023 49.4943 11.2352 49.5124 11.2683C49.4047 11.3675 49.2768 11.4205 49.1488 11.4205C49.0209 11.4205 48.893 11.3675 48.7852 11.2683C48.8032 11.2354 48.8201 11.2027 48.8364 11.171ZM49.6598 11.0798C49.7414 10.9351 49.7924 10.7479 49.7924 10.5252C49.7924 11.3086 49.3419 11.5324 49.1488 11.5324C48.9558 11.5324 48.5053 11.3086 48.5053 10.5252C48.5053 10.7479 48.5562 10.9351 48.6378 11.0798C48.6836 11.0203 48.7252 10.9678 48.7627 10.9205C48.9343 10.7042 49.0201 10.5961 49.0201 10.4133C49.0201 10.4133 49.0523 10.4133 49.0523 10.5364C49.0523 10.6291 49.0955 10.7043 49.1488 10.7043C49.2021 10.7043 49.2454 10.6291 49.2454 10.5364C49.2454 10.4133 49.2775 10.4133 49.2775 10.4133C49.2775 10.5961 49.3633 10.7042 49.535 10.9205L49.5352 10.9208L49.536 10.9218C49.5732 10.9687 49.6145 11.0208 49.6598 11.0798ZM53.2338 19.0615C54.7702 19.1723 55.8064 19.2098 56.3717 19.0584C56.6826 18.975 57.0317 18.9336 56.9404 19.2423C56.9388 19.2479 56.9372 19.252 56.9358 19.2545C56.8471 19.4087 56.8071 19.4783 56.2922 19.4783C54.4037 19.4783 53.4292 19.3947 53.0159 19.2785C52.7586 19.2062 52.9673 19.0423 53.2338 19.0615ZM55.1896 20.2603C55.8734 20.2858 56.2653 20.2292 56.5245 20.1062C56.7083 20.019 56.9378 19.9987 56.9357 20.2022C56.9343 20.3388 56.8503 20.4129 56.7183 20.4479C56.4758 20.5121 56.0082 20.5656 55.1338 20.4856C55.0094 20.4742 55.0648 20.2556 55.1896 20.2603ZM23.2142 7.27981C23.393 6.96877 23.7272 6.98191 24.0009 7.09398C24.2166 7.1823 24.3294 7.40548 24.3641 7.63596C24.4475 8.18954 24.5428 8.92602 24.5012 9.07044C24.4369 9.29426 23.729 9.96575 23.4716 9.85384C23.2142 9.74192 22.9567 7.72747 23.2142 7.27981ZM3.84346 20.8213C1.87389 20.9114 0.904987 20.9289 0.423164 20.7569C0.23156 20.6886 -0.00204629 20.6701 1.17399e-05 20.8736C0.00139409 21.0102 0.0857056 21.0812 0.216296 21.1213C0.616261 21.2442 1.65188 21.4229 3.84345 21.157C4.38272 21.0916 4.22945 20.8036 3.84346 20.8213ZM2.84727 22.1552C1.25 22.1279 0.639315 22.0363 0.313781 21.8414C0.200988 21.7739 0.0490172 21.7199 0.015466 21.847C0.00628596 21.8818 0.00182324 21.9202 0.000449476 21.9581C-0.00450534 22.0946 0.0896314 22.1922 0.223398 22.2199C0.697283 22.3183 1.88769 22.459 2.85485 22.2762C3.04414 22.2404 3.03988 22.1585 2.84727 22.1552ZM33.5787 21.7165H17.8404C17.8568 21.8699 17.876 22.0201 17.8966 22.1642H33.5493L33.5787 21.7165ZM34.0798 21.7165H39.2608C39.3708 21.7165 39.477 21.6768 39.56 21.6046L39.5027 22.1642H34.0504L34.0798 21.7165ZM17.3917 22.1642C17.3717 22.0195 17.3534 21.8695 17.3376 21.7165H15.4386C15.2585 21.7165 15.0883 21.6341 14.9767 21.4927C15.0195 21.6413 15.0431 21.7948 15.047 21.9494L15.0525 22.1642H17.3917ZM31.7905 12.2039H32.6099V13.323H31.7905C31.4952 13.323 31.2508 13.0936 31.232 12.799C31.2115 12.4766 31.4674 12.2039 31.7905 12.2039ZM33.1247 13.323V12.2039C33.3684 12.2039 33.5613 12.4101 33.545 12.6533L33.5252 12.9485C33.511 13.1593 33.3359 13.323 33.1247 13.323Z" fill="#6AB1D7"/>
</svg>
